<?xml version="1.0" encoding="UTF-8" standalone="no"?>
<svg
   xmlns:dc="http://purl.org/dc/elements/1.1/"
   xmlns:cc="http://creativecommons.org/ns#"
   xmlns:rdf="http://www.w3.org/1999/02/22-rdf-syntax-ns#"
   xmlns:svg="http://www.w3.org/2000/svg"
   xmlns="http://www.w3.org/2000/svg"
   xmlns:sodipodi="http://sodipodi.sourceforge.net/DTD/sodipodi-0.dtd"
   xmlns:inkscape="http://www.inkscape.org/namespaces/inkscape"
   version="1.1"
   id="svg2"
   xml:space="preserve"
   width="1068"
   height="837.30664"
   viewBox="0 0 1068 837.30664"
   sodipodi:docname="Textury.eps"><metadata
     id="metadata8"><rdf:RDF><cc:Work
         rdf:about=""><dc:format>image/svg+xml</dc:format><dc:type
           rdf:resource="http://purl.org/dc/dcmitype/StillImage" /></cc:Work></rdf:RDF></metadata><defs
     id="defs6"><clipPath
       clipPathUnits="userSpaceOnUse"
       id="clipPath36"><path
         d="m 2083.21,3498.26 -102.87,-2.1 c -2.21,-11.18 -18,-175.74 -7.92,-176.97 l 0.05,-0.06 c 12.76,-0.17 27.79,-0.4 42.7,-0.64 37.93,-0.52 75.32,-1.1 75.32,-1.1 42.18,-3.38 83.01,-12.41 119.24,-34.9 16.49,-10.31 33.44,-21.2 47.71,-34.31 l -16.89,220.89 c -48.23,18.53 -100.78,28.2 -157.34,29.19 z"
         id="path34" /></clipPath><linearGradient
       x1="0"
       y1="0"
       x2="1"
       y2="0"
       gradientUnits="userSpaceOnUse"
       gradientTransform="matrix(-309.173,1.12427,1.12427,309.173,2080,3373.55)"
       spreadMethod="pad"
       id="linearGradient42"><stop
         style="stop-opacity:1;stop-color:#ffffff"
         offset="0"
         id="stop38" /><stop
         style="stop-opacity:1;stop-color:#100f0d"
         offset="1"
         id="stop40" /></linearGradient><clipPath
       clipPathUnits="userSpaceOnUse"
       id="clipPath54"><path
         d="m 973.344,2803.96 c -53.297,9.73 -97.688,27.78 -132.754,54.58 l -64.195,-174.06 c 14.273,-8.91 29.359,-16.66 44.679,-23.7 16.778,-7.81 34.078,-14.74 51.785,-19.75 24.7,-6.99 49.746,-12.93 74.969,-17.19 16.953,-2.85 34.488,-2.09 51.149,-2.91 0,0.12 0,0.23 0.054,0.29 l 101.829,4.43 -4.6,174.93 z"
         id="path52" /></clipPath><linearGradient
       x1="0"
       y1="0"
       x2="1"
       y2="0"
       gradientUnits="userSpaceOnUse"
       gradientTransform="matrix(127.552,3.06125,3.06125,-127.552,1021.34,2742.17)"
       spreadMethod="pad"
       id="linearGradient60"><stop
         style="stop-opacity:1;stop-color:#ffffff"
         offset="0"
         id="stop56" /><stop
         style="stop-opacity:1;stop-color:#100f0d"
         offset="1"
         id="stop58" /></linearGradient></defs><sodipodi:namedview
     pagecolor="#ffffff"
     bordercolor="#666666"
     borderopacity="1"
     objecttolerance="10"
     gridtolerance="10"
     guidetolerance="10"
     inkscape:pageopacity="0"
     inkscape:pageshadow="2"
     inkscape:window-width="640"
     inkscape:window-height="480"
     id="namedview4" /><g
     id="g10"
     inkscape:groupmode="layer"
     inkscape:label="ink_ext_XXXXXX"
     transform="matrix(1.3333333,0,0,-1.3333333,0,837.30667)"><g
       id="g12"
       transform="scale(0.1)"><path
         d="M 8010,0 H 0 V 6279.85 H 8010 V 0"
         style="fill:#100f0d;fill-opacity:1;fill-rule:nonzero;stroke:none"
         id="path14" /><path
         d="m 1801.1,2516.54 c -0.93,-4.07 -2.62,-8.33 -2.62,-12.64 -0.18,-30.58 -8.27,-59.65 -20.22,-87.08 -12.93,-29.94 -30.52,-57.56 -55.1,-79.69 -10.49,-9.55 -21.9,-17.94 -32.91,-26.85 -28.78,-23.42 -62.51,-36.53 -98.27,-42.59 -49.23,-8.44 -97.75,-5.12 -145.23,13.46 -31.57,12.35 -58.83,30.64 -83.47,52.95 -21.26,19.28 -36.23,43.57 -49.92,68.91 -12.41,23.01 -21.03,47.24 -23.94,72.64 -3.38,29.36 -3.44,59.13 -3.67,88.72 -0.35,71.88 0.11,143.76 0,215.65 0,6.87 -1.23,13.8 -1.75,18.52 -44.04,0.12 -87.09,0.29 -130.37,0.47 l -57.37,1.57 4.6,-174.93 1.34,0.06 c 0.06,-16.84 0.05,-33.61 0,-50.45 -0.12,-56.85 1.05,-113.47 16.25,-168.99 12.35,-45.08 30.99,-87.61 56.97,-126.05 18.7,-27.67 41.36,-52.89 64.25,-77.42 12.99,-13.92 29.53,-24.64 45.2,-35.88 16.72,-11.94 33.26,-24.76 51.61,-33.79 25.69,-12.64 52.78,-22.95 79.75,-32.68 35.88,-12.93 73.51,-18.17 111.44,-18.46 27.37,-0.12 55.16,0.87 82.07,5.3 29.42,4.72 59.13,11.36 86.8,22.02 36.11,13.98 70.02,32.62 102.11,55.51 52.6,37.57 93.38,84.41 125.01,140.15 16.37,28.84 29.71,58.72 39.15,90.64 10.36,34.72 16.07,70.14 17.35,106.25 0.24,4.78 -1.05,9.56 -1.45,12.88 -59.83,0.64 -117.85,1.22 -177.61,1.8"
         style="fill:#ffffff;fill-opacity:1;fill-rule:nonzero;stroke:none"
         id="path16" /><path
         d="m 745,3068.19 c 15.492,154.25 105.086,233.35 253.391,251.41 0.117,58.72 0.351,117.43 0.527,177.96 -6.352,0.52 -12.059,1.69 -17.594,1.28 -11.008,-0.87 -22.078,-1.92 -32.914,-4.14 -26.094,-5.24 -52.656,-9.67 -77.996,-17.53 -23.359,-7.16 -46.019,-17.24 -67.746,-28.25 -20.273,-10.25 -40.078,-21.9 -58.137,-35.54 -21.379,-16.01 -41.125,-34.25 -60.523,-52.6 -9.961,-9.38 -17.942,-20.85 -26.039,-31.98 -13.805,-18.93 -28.543,-37.51 -40.133,-57.84 -10.66,-18.7 -19.051,-38.97 -25.981,-59.42 -8.972,-26.44 -17.593,-53.36 -22.542,-80.79 -6.293,-35.07 -7.575,-70.83 -4.254,-106.78 3.554,-38.15 10.718,-75.37 24.464,-111.14 6.293,-16.54 13.864,-32.62 21.614,-48.52 7.281,-14.97 14.445,-30.18 23.648,-44.04 11.07,-16.55 24.176,-31.75 36.406,-47.59 26.914,-34.84 62.274,-59.83 98.332,-83.77 2.211,-1.51 4.543,-3.03 6.872,-4.43 l 64.195,174.06 c -58.719,44.74 -91.223,113.82 -95.59,209.65"
         style="fill:#ffffff;fill-opacity:1;fill-rule:nonzero;stroke:none"
         id="path18" /><path
         d="m 1980.34,3496.16 c -0.06,12.41 -0.06,24.87 -0.18,37.34 -0.23,54.87 3.5,110.21 -10.71,164.15 -5.65,21.38 -11.42,42.88 -19.87,63.21 -8.97,21.55 -19.92,42.64 -32.27,62.44 -14.56,23.19 -30.23,45.96 -48,66.76 -19.63,23.01 -41.71,44.15 -67.57,60.7 -8.68,5.53 -15.9,13.45 -24.7,18.75 -14.27,8.57 -28.95,16.72 -44.15,23.54 -24,10.6 -47.94,22.54 -73.11,29.18 -43.86,11.59 -88.78,17.48 -134.68,15.38 -38.44,-1.87 -76.19,-7.46 -112.6,-19.05 -23.53,-7.46 -46.13,-18.29 -68.5,-28.89 -17.01,-8.16 -34.08,-16.95 -49.34,-27.9 -44.74,-32.04 -83.59,-70.43 -115.75,-115.28 -1.8,-2.63 -3.49,-5.36 -5.01,-8.16 -8.15,-15.03 -16.77,-29.71 -24.29,-45.03 -8.73,-17.82 -18.46,-35.59 -24.17,-54.46 -7.92,-26.1 -13.22,-53.07 -18,-79.98 -3.2,-18.82 -3.55,-38.16 -5.24,-56.97 61.51,0.23 121.39,0.46 182.79,0.7 0.12,1.98 0.35,5.12 0.41,8.33 0.64,35.59 10.83,68.85 24.81,101.12 9.85,22.89 24.58,43.11 41.89,60.52 17.06,17.07 35.7,33.38 56.09,46.08 19.05,11.94 40.84,20.1 62.27,27.32 16.37,5.54 34.02,9.44 51.21,9.85 23.41,0.58 47.24,-0.88 70.19,-5.07 21.14,-3.9 42.52,-10.25 61.75,-19.81 20.85,-10.37 40.01,-24.64 58.54,-38.97 11.65,-8.97 21.61,-20.56 30.81,-32.21 15.32,-19.52 27.91,-40.6 37.17,-64.08 11.01,-28.02 17.53,-56.68 18.23,-86.38 0.93,-37.4 -0.29,-74.97 -0.35,-112.43 -0.12,-47.53 -0.06,-95.01 0.06,-142.54 0,-11.89 0.64,-23.83 0.99,-34.43 46.83,-0.12 92.45,-0.17 138.06,-0.23 1.16,0 15.61,-0.24 35.3,-0.47 -10.08,1.23 5.71,165.79 7.92,176.97"
         style="fill:#ffffff;fill-opacity:1;fill-rule:nonzero;stroke:none"
         id="path20" /><path
         d="m 2240.55,3469.07 16.89,-220.89 c 4.02,-3.55 7.81,-7.34 11.3,-11.3 15.67,-17.88 30.35,-37.34 41.89,-59.24 20.21,-38.62 27.78,-79.28 27.84,-121.86 0.12,-31.22 -7.05,-60.99 -17.83,-90.52 -9.38,-25.69 -23.01,-48.53 -39.37,-69.32 -25.29,-32.04 -58.14,-56.04 -95.54,-72.24 -27.49,-11.88 -56.38,-20.15 -86.91,-20.38 -13.63,-0.12 -16.83,-3.67 -16.89,-17.6 -0.18,-30.11 0,-60.11 -0.12,-90.17 -0.06,-23.94 -0.29,-47.82 -0.52,-72.41 108.52,-7.74 291.26,50.57 388.19,231.15 78.69,146.73 74.27,340.83 -57.73,492.86 -49.05,56.51 -106.25,97.17 -171.2,121.92"
         style="fill:#ffffff;fill-opacity:1;fill-rule:nonzero;stroke:none"
         id="path22" /><path
         d="m 1697.46,3498.8 c -198.23,-0.14 -396.89,-0.27 -594.06,-0.41 0.06,-197.21 0.11,-395.83 0.17,-597.29 59.14,-0.07 121.21,-0.14 187.29,-0.21 -0.29,139.53 -0.58,275.6 -0.87,413.17 136.58,0 272.64,0 405.83,-0.01 0.56,63.37 1.11,124.96 1.64,184.75"
         style="fill:#ffffff;fill-opacity:1;fill-rule:nonzero;stroke:none"
         id="path24" /><path
         d="m 1795.76,3215.09 c -0.03,-135.45 -0.05,-271.87 -0.07,-409.7 -137.33,-0.03 -273.1,-0.07 -411.43,-0.1 -0.15,-62.64 -0.29,-123.25 -0.43,-182.82 200.31,0.18 399.54,0.35 599.56,0.53 -0.07,196.66 -0.15,395.64 -0.22,590.42 -63.86,0.57 -124.79,1.11 -187.41,1.67"
         style="fill:#ffffff;fill-opacity:1;fill-rule:nonzero;stroke:none"
         id="path26" /><path
         d="m 2083.21,3498.26 -102.87,-2.1 c -2.21,-11.18 -18,-175.74 -7.92,-176.97 l 0.05,-0.06 c 12.76,-0.17 27.79,-0.4 42.7,-0.64 37.93,-0.52 75.32,-1.1 75.32,-1.1 42.18,-3.38 83.01,-12.41 119.24,-34.9 16.49,-10.31 33.44,-21.2 47.71,-34.31 l -16.89,220.89 c -48.23,18.53 -100.78,28.2 -157.34,29.19"
         style="fill:#ffffff;fill-opacity:1;fill-rule:nonzero;stroke:none"
         id="path28" /><g
         id="g30"><g
           id="g32"
           clip-path="url(#clipPath36)"><path
             d="m 2083.21,3498.26 -102.87,-2.1 c -2.21,-11.18 -18,-175.74 -7.92,-176.97 l 0.05,-0.06 c 12.76,-0.17 27.79,-0.4 42.7,-0.64 37.93,-0.52 75.32,-1.1 75.32,-1.1 42.18,-3.38 83.01,-12.41 119.24,-34.9 16.49,-10.31 33.44,-21.2 47.71,-34.31 l -16.89,220.89 c -48.23,18.53 -100.78,28.2 -157.34,29.19"
             style="fill:url(#linearGradient42);fill-opacity:1;fill-rule:nonzero;stroke:none"
             id="path44" /></g></g><path
         d="m 973.344,2803.96 c -53.297,9.73 -97.688,27.78 -132.754,54.58 l -64.195,-174.06 c 14.273,-8.91 29.359,-16.66 44.679,-23.7 16.778,-7.81 34.078,-14.74 51.785,-19.75 24.7,-6.99 49.746,-12.93 74.969,-17.19 16.953,-2.85 34.488,-2.09 51.149,-2.91 0,0.12 0,0.23 0.054,0.29 l 101.829,4.43 -4.6,174.93 -122.916,3.38"
         style="fill:#ffffff;fill-opacity:1;fill-rule:nonzero;stroke:none"
         id="path46" /><g
         id="g48"><g
           id="g50"
           clip-path="url(#clipPath54)"><path
             d="m 973.344,2803.96 c -53.297,9.73 -97.688,27.78 -132.754,54.58 l -64.195,-174.06 c 14.273,-8.91 29.359,-16.66 44.679,-23.7 16.778,-7.81 34.078,-14.74 51.785,-19.75 24.7,-6.99 49.746,-12.93 74.969,-17.19 16.953,-2.85 34.488,-2.09 51.149,-2.91 0,0.12 0,0.23 0.054,0.29 l 101.829,4.43 -4.6,174.93 -122.916,3.38"
             style="fill:url(#linearGradient60);fill-opacity:1;fill-rule:nonzero;stroke:none"
             id="path62" /></g></g><path
         d="m 3379.32,3524.36 h -660.61 v -119.63 h 254.88 v -798.46 h 149.54 v 798.46 h 256.19 v 119.63"
         style="fill:#ffffff;fill-opacity:1;fill-rule:nonzero;stroke:none"
         id="path64" /><path
         d="m 3884.04,3002.9 h -407.03 c 3.45,69.35 24.71,121.79 63.72,157.35 39.01,35.54 87.55,53.31 145.65,53.31 36.41,0 69.99,-7.59 100.78,-22.75 30.76,-15.18 55.04,-38.59 72.82,-70.22 17.76,-31.66 25.79,-70.88 24.06,-117.69 z m -13.66,285.44 c -52.46,29.03 -113.79,43.56 -184,43.56 -69.38,0 -130.7,-14.75 -184.01,-44.21 -53.32,-29.48 -95.16,-71.97 -125.49,-127.44 -30.36,-55.49 -45.52,-120.52 -45.52,-195.07 0,-75.42 15.16,-140.89 45.52,-196.35 30.33,-55.49 72.17,-97.98 125.49,-127.45 53.31,-29.48 114.63,-44.21 184.01,-44.21 59.81,0 113.98,11.05 162.55,33.16 48.54,22.11 87.97,52.66 118.33,91.67 30.34,39.03 50.27,83.66 59.83,133.95 h -158.66 c -7.8,-41.61 -28.83,-74.99 -63.07,-100.12 -34.26,-25.16 -76.07,-37.73 -125.49,-37.73 -56.36,0 -103.61,17.77 -141.74,53.33 -38.16,35.54 -58.52,90.15 -61.12,163.85 h 551.38 c 3.45,18.2 5.2,39.44 5.2,63.72 0,62.42 -14.11,118.99 -42.26,169.7 -28.19,50.72 -68.5,90.58 -120.95,119.64"
         style="fill:#ffffff;fill-opacity:1;fill-rule:nonzero;stroke:none"
         id="path66" /><path
         d="m 4735.01,3322.8 h -163.84 l -152.15,-247.08 -171.65,247.08 h -167.76 l 239.28,-344.61 -236.68,-371.92 h 165.16 l 153.44,253.59 175.56,-253.59 h 167.75 l -245.77,355.01 236.66,361.52"
         style="fill:#ffffff;fill-opacity:1;fill-rule:nonzero;stroke:none"
         id="path68" /><path
         d="m 5091.46,2758.43 c -15.18,15.6 -22.75,43.76 -22.75,84.52 v 353.71 h 172.96 v 126.14 h -172.96 v 178.16 H 4919.16 V 3322.8 h -102.73 v -126.14 h 102.73 v -351.11 c 0,-85.82 19.71,-147.16 59.17,-184.01 39.44,-36.86 97.3,-55.27 173.6,-55.27 h 91.04 v 128.74 h -71.53 c -38.15,0 -64.82,7.8 -79.98,23.42"
         style="fill:#ffffff;fill-opacity:1;fill-rule:nonzero;stroke:none"
         id="path70" /><path
         d="m 5886.91,2943.08 c 0,-72.82 -17.78,-128.31 -53.31,-166.45 -35.57,-38.16 -82.8,-57.23 -141.76,-57.23 -57.21,0 -102.3,17.56 -135.23,52.68 -32.96,35.11 -49.42,85.17 -49.42,150.19 v 400.53 h -148.25 v -416.13 c 0,-99.7 25.14,-176.43 75.44,-230.18 50.26,-53.76 117.03,-80.62 200.25,-80.62 59.81,0 112.27,14.5 157.35,43.56 45.06,29.03 76.72,70.01 94.93,122.9 v -156.06 h 149.55 v 716.53 h -149.55 v -379.72"
         style="fill:#ffffff;fill-opacity:1;fill-rule:nonzero;stroke:none"
         id="path72" /><path
         d="m 6367.01,3182.36 v 140.44 h -148.26 v -716.53 h 148.26 v 362.81 c 0,72.83 19.7,125.05 59.16,156.71 39.44,31.63 91.68,47.46 156.71,47.46 h 44.21 v 161.25 c -58.97,0 -110.98,-13.65 -156.05,-40.96 -45.09,-27.3 -79.78,-64.37 -104.03,-111.18"
         style="fill:#ffffff;fill-opacity:1;fill-rule:nonzero;stroke:none"
         id="path74" /><path
         d="m 7281.56,3322.8 -198.97,-526.66 -214.55,526.66 h -166.46 l 301.69,-699.62 -154.74,-357.61 h 165.14 l 433.05,1057.23 h -165.16"
         style="fill:#ffffff;fill-opacity:1;fill-rule:nonzero;stroke:none"
         id="path76" /></g></g></svg>
